<svg xmlns="http://www.w3.org/2000/svg" width="510" height="511" fill="none" viewBox="0 0 510 511" id="menu"><path fill="#000" fill-rule="evenodd" d="M341 341H291V291H341V341zM356 346C356 351.523 351.523 356 346 356H286C280.477 356 276 351.523 276 346V286C276 280.477 280.477 276 286 276H346C351.523 276 356 280.477 356 286V346zM221 341H171V291H221V341zM236 346C236 351.523 231.523 356 226 356H166C160.477 356 156 351.523 156 346V286C156 280.477 160.477 276 166 276H226C231.523 276 236 280.477 236 286V346zM341 221H291V171H341V221zM356 226C356 231.523 351.523 236 346 236H286C280.477 236 276 231.523 276 226V166C276 160.477 280.477 156 286 156H346C351.523 156 356 160.477 356 166V226zM221 221H171V171H221V221zM236 226C236 231.523 231.523 236 226 236H166C160.477 236 156 231.523 156 226V166C156 160.477 160.477 156 166 156H226C231.523 156 236 160.477 236 166V226z" clip-rule="evenodd"></path></svg>